# xmcd
#
# Track frame offsets:
#	150
#	24376
#	46166
#	70525
#	98144
#	127942
#	144461
#	175832
#	200157
#
# Disc length: 3051 seconds
#
# Revision: 1
# Processed by: cddbd v1.5.2PL0 Copyright (c) Steve Scherf et al.
# Submitted via: audiograbber 1.83.01
#
DISCID=730be909
DTITLE=Bamboo Soup - Small Defence - Riley Lee
DYEAR=1900
DGENRE=
TTITLE0=Karate Master
TTITLE1=Piece for Orchestra
TTITLE2=Golden Buddha
TTITLE3=Deer Horn
TTITLE4=Gravity Whispers
TTITLE5=It's a Running Bamboo
TTITLE6=Floating World
TTITLE7=Red Tentacles
TTITLE8=No One Sleeps
EXTD=
EXTT0=
EXTT1=
EXTT2=
EXTT3=
EXTT4=
EXTT5=
EXTT6=
EXTT7=
EXTT8=
PLAYORDER=
